# xmcd CD database file
#
# Track frame offsets:
#	150
#	11825
#	26932
#	38510
#
# Disc length: 711 seconds
#
# Revision: 0
# Processed by: cddbd v1.5.2PL0 Copyright (c) Steve Scherf et al.
# Submitted via: CDex 1.70beta3
#
DISCID=2902c504
DTITLE=ふわふわ - 晴天HOLIDAY／Oh!-Ma-Tsu-Ri!
DYEAR=2016
DGENRE=VISION FACTORY
TTITLE0=晴天HOLIDAY
TTITLE1=Oh!-Ma-Tsu-Ri!
TTITLE2=晴天HOLIDAY (Instrumental)
TTITLE3=Oh!-Ma-Tsu-Ri! (Instrumental)
EXTD=YEAR: 2016
EXTT0=
EXTT1=
EXTT2=
EXTT3=
PLAYORDER=
